<mxfile host="app.diagrams.net" modified="2023-08-09T05:24:32.504Z" agent="Mozilla/5.0 (Windows NT 10.0; Win64; x64) AppleWebKit/537.36 (KHTML, like Gecko) Chrome/115.0.0.0 Safari/537.36" etag="uxKo7Ifk1Gr0a-4XUals" version="21.6.6" type="device">
  <diagram name="Page-1" id="l3xAPVJWgxbae8cw-x1L">
    <mxGraphModel dx="990" dy="1375" grid="1" gridSize="10" guides="1" tooltips="1" connect="1" arrows="1" fold="1" page="1" pageScale="1" pageWidth="850" pageHeight="1100" math="0" shadow="0">
      <root>
        <mxCell id="0" />
        <mxCell id="1" parent="0" />
        <mxCell id="N9q5Kd1ozlSONzn5f6YZ-1" value="AWS Cloud" style="sketch=0;outlineConnect=0;gradientColor=none;html=1;whiteSpace=wrap;fontSize=12;fontStyle=0;shape=mxgraph.aws4.group;grIcon=mxgraph.aws4.group_aws_cloud;strokeColor=#AAB7B8;fillColor=none;verticalAlign=top;align=left;spacingLeft=30;fontColor=#AAB7B8;dashed=0;" vertex="1" parent="1">
          <mxGeometry x="170" y="300" width="620" height="740" as="geometry" />
        </mxCell>
        <mxCell id="N9q5Kd1ozlSONzn5f6YZ-2" value="" style="sketch=0;outlineConnect=0;fontColor=#232F3E;gradientColor=none;fillColor=#232F3D;strokeColor=none;dashed=0;verticalLabelPosition=bottom;verticalAlign=top;align=center;html=1;fontSize=12;fontStyle=0;aspect=fixed;pointerEvents=1;shape=mxgraph.aws4.client;" vertex="1" parent="1">
          <mxGeometry x="20" y="602" width="78" height="76" as="geometry" />
        </mxCell>
        <mxCell id="N9q5Kd1ozlSONzn5f6YZ-3" value="" style="sketch=0;points=[[0,0,0],[0.25,0,0],[0.5,0,0],[0.75,0,0],[1,0,0],[0,1,0],[0.25,1,0],[0.5,1,0],[0.75,1,0],[1,1,0],[0,0.25,0],[0,0.5,0],[0,0.75,0],[1,0.25,0],[1,0.5,0],[1,0.75,0]];outlineConnect=0;fontColor=#232F3E;gradientColor=#F54749;gradientDirection=north;fillColor=#C7131F;strokeColor=#ffffff;dashed=0;verticalLabelPosition=bottom;verticalAlign=top;align=center;html=1;fontSize=12;fontStyle=0;aspect=fixed;shape=mxgraph.aws4.resourceIcon;resIcon=mxgraph.aws4.amplify;" vertex="1" parent="1">
          <mxGeometry x="190" y="340" width="78" height="78" as="geometry" />
        </mxCell>
        <mxCell id="N9q5Kd1ozlSONzn5f6YZ-4" value="" style="sketch=0;points=[[0,0,0],[0.25,0,0],[0.5,0,0],[0.75,0,0],[1,0,0],[0,1,0],[0.25,1,0],[0.5,1,0],[0.75,1,0],[1,1,0],[0,0.25,0],[0,0.5,0],[0,0.75,0],[1,0.25,0],[1,0.5,0],[1,0.75,0]];outlineConnect=0;fontColor=#232F3E;gradientColor=#4D72F3;gradientDirection=north;fillColor=#3334B9;strokeColor=#ffffff;dashed=0;verticalLabelPosition=bottom;verticalAlign=top;align=center;html=1;fontSize=12;fontStyle=0;aspect=fixed;shape=mxgraph.aws4.resourceIcon;resIcon=mxgraph.aws4.dynamodb;" vertex="1" parent="1">
          <mxGeometry x="490" y="920" width="78" height="78" as="geometry" />
        </mxCell>
        <mxCell id="N9q5Kd1ozlSONzn5f6YZ-7" value="" style="sketch=0;points=[[0,0,0],[0.25,0,0],[0.5,0,0],[0.75,0,0],[1,0,0],[0,1,0],[0.25,1,0],[0.5,1,0],[0.75,1,0],[1,1,0],[0,0.25,0],[0,0.5,0],[0,0.75,0],[1,0.25,0],[1,0.5,0],[1,0.75,0]];outlineConnect=0;fontColor=#232F3E;gradientColor=#F78E04;gradientDirection=north;fillColor=#D05C17;strokeColor=#ffffff;dashed=0;verticalLabelPosition=bottom;verticalAlign=top;align=center;html=1;fontSize=12;fontStyle=0;aspect=fixed;shape=mxgraph.aws4.resourceIcon;resIcon=mxgraph.aws4.lambda;" vertex="1" parent="1">
          <mxGeometry x="490" y="600" width="78" height="78" as="geometry" />
        </mxCell>
        <mxCell id="N9q5Kd1ozlSONzn5f6YZ-9" value="" style="sketch=0;points=[[0,0,0],[0.25,0,0],[0.5,0,0],[0.75,0,0],[1,0,0],[0,1,0],[0.25,1,0],[0.5,1,0],[0.75,1,0],[1,1,0],[0,0.25,0],[0,0.5,0],[0,0.75,0],[1,0.25,0],[1,0.5,0],[1,0.75,0]];points=[[0,0,0],[0.25,0,0],[0.5,0,0],[0.75,0,0],[1,0,0],[0,1,0],[0.25,1,0],[0.5,1,0],[0.75,1,0],[1,1,0],[0,0.25,0],[0,0.5,0],[0,0.75,0],[1,0.25,0],[1,0.5,0],[1,0.75,0]];outlineConnect=0;fontColor=#232F3E;gradientColor=#F34482;gradientDirection=north;fillColor=#BC1356;strokeColor=#ffffff;dashed=0;verticalLabelPosition=bottom;verticalAlign=top;align=center;html=1;fontSize=12;fontStyle=0;aspect=fixed;shape=mxgraph.aws4.resourceIcon;resIcon=mxgraph.aws4.systems_manager;" vertex="1" parent="1">
          <mxGeometry x="490" y="394" width="78" height="78" as="geometry" />
        </mxCell>
        <mxCell id="N9q5Kd1ozlSONzn5f6YZ-11" value="" style="sketch=0;points=[[0,0,0],[0.25,0,0],[0.5,0,0],[0.75,0,0],[1,0,0],[0,1,0],[0.25,1,0],[0.5,1,0],[0.75,1,0],[1,1,0],[0,0.25,0],[0,0.5,0],[0,0.75,0],[1,0.25,0],[1,0.5,0],[1,0.75,0]];outlineConnect=0;fontColor=#232F3E;gradientColor=#945DF2;gradientDirection=north;fillColor=#5A30B5;strokeColor=#ffffff;dashed=0;verticalLabelPosition=bottom;verticalAlign=top;align=center;html=1;fontSize=12;fontStyle=0;aspect=fixed;shape=mxgraph.aws4.resourceIcon;resIcon=mxgraph.aws4.api_gateway;" vertex="1" parent="1">
          <mxGeometry x="190" y="600" width="78" height="78" as="geometry" />
        </mxCell>
        <mxCell id="N9q5Kd1ozlSONzn5f6YZ-13" value="" style="endArrow=classic;startArrow=classic;html=1;rounded=0;exitX=0.5;exitY=0;exitDx=0;exitDy=0;exitPerimeter=0;entryX=0.5;entryY=1;entryDx=0;entryDy=0;entryPerimeter=0;" edge="1" parent="1" source="N9q5Kd1ozlSONzn5f6YZ-4" target="N9q5Kd1ozlSONzn5f6YZ-7">
          <mxGeometry width="50" height="50" relative="1" as="geometry">
            <mxPoint x="400" y="590" as="sourcePoint" />
            <mxPoint x="450" y="540" as="targetPoint" />
          </mxGeometry>
        </mxCell>
        <mxCell id="N9q5Kd1ozlSONzn5f6YZ-16" value="&lt;div&gt;&lt;b&gt;Lambda functions interacting with DynamoDB&lt;/b&gt;&lt;/div&gt;&lt;div&gt;&lt;br&gt;wordplay-add&lt;/div&gt;&lt;div&gt;wordplay-otp&lt;/div&gt;&lt;div&gt;wordplay-scan&lt;/div&gt;&lt;div&gt;wordplay-delete&lt;/div&gt;&lt;div&gt;wordplay-update&lt;/div&gt;&lt;div&gt;wordplay-approval&lt;/div&gt;&lt;div&gt;wordplay-scan-pending&lt;/div&gt;&lt;div&gt;wordplay-scan-approved&lt;/div&gt;" style="text;html=1;strokeColor=#d6b656;fillColor=#fff2cc;align=center;verticalAlign=middle;whiteSpace=wrap;rounded=0;" vertex="1" parent="1">
          <mxGeometry x="550" y="720" width="160" height="158" as="geometry" />
        </mxCell>
        <mxCell id="N9q5Kd1ozlSONzn5f6YZ-17" style="edgeStyle=orthogonalEdgeStyle;rounded=0;orthogonalLoop=1;jettySize=auto;html=1;exitX=0.5;exitY=1;exitDx=0;exitDy=0;" edge="1" parent="1" source="N9q5Kd1ozlSONzn5f6YZ-16" target="N9q5Kd1ozlSONzn5f6YZ-16">
          <mxGeometry relative="1" as="geometry" />
        </mxCell>
        <mxCell id="N9q5Kd1ozlSONzn5f6YZ-21" value="" style="endArrow=classic;startArrow=classic;html=1;rounded=0;entryX=0.5;entryY=1;entryDx=0;entryDy=0;entryPerimeter=0;" edge="1" parent="1" source="N9q5Kd1ozlSONzn5f6YZ-7" target="N9q5Kd1ozlSONzn5f6YZ-9">
          <mxGeometry width="50" height="50" relative="1" as="geometry">
            <mxPoint x="590" y="560" as="sourcePoint" />
            <mxPoint x="640" y="510" as="targetPoint" />
          </mxGeometry>
        </mxCell>
        <mxCell id="N9q5Kd1ozlSONzn5f6YZ-22" value="" style="endArrow=classic;startArrow=classic;html=1;rounded=0;entryX=1;entryY=0.5;entryDx=0;entryDy=0;entryPerimeter=0;exitX=0;exitY=0.5;exitDx=0;exitDy=0;exitPerimeter=0;" edge="1" parent="1" source="N9q5Kd1ozlSONzn5f6YZ-7" target="N9q5Kd1ozlSONzn5f6YZ-11">
          <mxGeometry width="50" height="50" relative="1" as="geometry">
            <mxPoint x="590" y="560" as="sourcePoint" />
            <mxPoint x="640" y="510" as="targetPoint" />
          </mxGeometry>
        </mxCell>
        <mxCell id="N9q5Kd1ozlSONzn5f6YZ-23" value="&lt;div&gt;&lt;b&gt;API Gateway Routes&lt;/b&gt;&lt;/div&gt;&lt;div&gt;&lt;b&gt;&lt;br&gt;&lt;/b&gt;&lt;/div&gt;&lt;div&gt;/wordplay-add&lt;/div&gt;&lt;div&gt;POST&lt;/div&gt;&lt;div&gt;/wordplay-admin-password&lt;/div&gt;&lt;div&gt;POST&lt;/div&gt;&lt;div&gt;/wordplay-approval&lt;/div&gt;&lt;div&gt;POST&lt;/div&gt;&lt;div&gt;/wordplay-delete&lt;/div&gt;&lt;div&gt;DELETE&lt;/div&gt;&lt;div&gt;/wordplay-otp&lt;/div&gt;&lt;div&gt;GET&lt;/div&gt;&lt;div&gt;/wordplay-scan&lt;/div&gt;&lt;div&gt;GET&lt;/div&gt;&lt;div&gt;/wordplay-scan-approved&lt;/div&gt;&lt;div&gt;GET&lt;/div&gt;&lt;div&gt;/wordplay-scan-pending&lt;/div&gt;&lt;div&gt;GET&lt;/div&gt;&lt;div&gt;/wordplay-session-management&lt;/div&gt;&lt;div&gt;POST&lt;/div&gt;&lt;div&gt;/wordplay-update&lt;/div&gt;&lt;div&gt;POST&lt;/div&gt;" style="text;html=1;strokeColor=#d6b656;fillColor=#fff2cc;align=center;verticalAlign=middle;whiteSpace=wrap;rounded=0;" vertex="1" parent="1">
          <mxGeometry x="280" y="650" width="180" height="320" as="geometry" />
        </mxCell>
        <mxCell id="N9q5Kd1ozlSONzn5f6YZ-24" value="&lt;div&gt;&lt;b&gt;Tables&lt;/b&gt;&lt;/div&gt;&lt;div&gt;&lt;b&gt;&lt;br&gt;&lt;/b&gt;&lt;/div&gt;&lt;div&gt;wordplay&lt;br&gt;&lt;/div&gt;&lt;div&gt;wordplayotp&lt;/div&gt;" style="text;html=1;strokeColor=#d6b656;fillColor=#fff2cc;align=center;verticalAlign=middle;whiteSpace=wrap;rounded=0;" vertex="1" parent="1">
          <mxGeometry x="580" y="924" width="70" height="70" as="geometry" />
        </mxCell>
        <mxCell id="N9q5Kd1ozlSONzn5f6YZ-25" value="&lt;div&gt;&lt;b&gt;Lambda function interacting with Systems Manager&lt;/b&gt;&lt;/div&gt;&lt;div&gt;&lt;br&gt;wordplay-admin-password&lt;br&gt;&lt;/div&gt;" style="text;html=1;strokeColor=#d6b656;fillColor=#fff2cc;align=center;verticalAlign=middle;whiteSpace=wrap;rounded=0;" vertex="1" parent="1">
          <mxGeometry x="550" y="490" width="160" height="90" as="geometry" />
        </mxCell>
        <mxCell id="N9q5Kd1ozlSONzn5f6YZ-27" value="" style="endArrow=classic;startArrow=classic;html=1;rounded=0;exitX=0;exitY=0.5;exitDx=0;exitDy=0;exitPerimeter=0;" edge="1" parent="1" source="N9q5Kd1ozlSONzn5f6YZ-11" target="N9q5Kd1ozlSONzn5f6YZ-2">
          <mxGeometry width="50" height="50" relative="1" as="geometry">
            <mxPoint x="320" y="920" as="sourcePoint" />
            <mxPoint x="370" y="870" as="targetPoint" />
          </mxGeometry>
        </mxCell>
        <mxCell id="N9q5Kd1ozlSONzn5f6YZ-29" value="" style="dashed=0;outlineConnect=0;html=1;align=center;labelPosition=center;verticalLabelPosition=bottom;verticalAlign=top;shape=mxgraph.weblogos.github" vertex="1" parent="1">
          <mxGeometry x="23" y="342" width="75" height="75" as="geometry" />
        </mxCell>
        <mxCell id="N9q5Kd1ozlSONzn5f6YZ-30" value="" style="endArrow=classic;startArrow=classic;html=1;rounded=0;exitX=0;exitY=0.5;exitDx=0;exitDy=0;exitPerimeter=0;" edge="1" parent="1" source="N9q5Kd1ozlSONzn5f6YZ-3" target="N9q5Kd1ozlSONzn5f6YZ-29">
          <mxGeometry width="50" height="50" relative="1" as="geometry">
            <mxPoint x="182" y="430" as="sourcePoint" />
            <mxPoint x="90" y="431" as="targetPoint" />
          </mxGeometry>
        </mxCell>
        <mxCell id="N9q5Kd1ozlSONzn5f6YZ-32" value="&lt;div&gt;&lt;b&gt;Amplify to host app&lt;/b&gt;&lt;/div&gt;&lt;div&gt;&lt;b&gt;Source from GitHub&lt;/b&gt;&lt;/div&gt;" style="text;html=1;strokeColor=#d6b656;fillColor=#fff2cc;align=center;verticalAlign=middle;whiteSpace=wrap;rounded=0;" vertex="1" parent="1">
          <mxGeometry x="280" y="358.5" width="140" height="41" as="geometry" />
        </mxCell>
      </root>
    </mxGraphModel>
  </diagram>
</mxfile>
